{
  "accessors": [
    {
      "bufferView": 1,
      "componentType": 5126,
      "count": 65532,
      "max": [
        79.9857406616211,
        118.91033935546875,
        116.37004852294922
      ],
      "min": [
        -80.01425170898438,
        -24.5465030670166,
        -100.11530303955078
      ],
      "type": "VEC3"
    },
    {
      "bufferView": 1,
      "byteOffset": 786384,
      "componentType": 5126,
      "count": 65532,
      "max": [
        0.9999682903289795,
        0.9999709129333496,
        0.9999685883522034
      ],
      "min": [
        -0.99995356798172,
        -0.9999489188194275,
        -0.9999964833259583
      ],
      "type": "VEC3"
    },
    {
      "bufferView": 0,
      "componentType": 5125,
      "count": 373455,
      "type": "SCALAR"
    },
    {
      "bufferView": 1,
      "byteOffset": 1572768,
      "componentType": 5126,
      "count": 10959,
      "max": [
        79.9842758178711,
        118.48949432373047,
        116.29800415039063
      ],
      "min": [
        -79.5556640625,
        -24.48050880432129,
        -100.07950592041016
      ],
      "type": "VEC3"
    },
    {
      "bufferView": 1,
      "byteOffset": 1704276,
      "componentType": 5126,
      "count": 10959,
      "max": [
        0.9999259114265442,
        0.9999709129333496,
        0.9993048906326294
      ],
      "min": [
        -0.999895453453064,
        -0.9999489188194275,
        -0.9999496936798096
      ],
      "type": "VEC3"
    },
    {
      "bufferView": 0,
      "byteOffset": 1493820,
      "componentType": 5125,
      "count": 21642,
      "type": "SCALAR"
    }
  ],
  "asset": {
    "extras": {
      "author": "Kitmago (https://sketchfab.com/kitmago)",
      "license": "SKETCHFAB Editorial (https://sketchfab.com/licenses)",
      "source": "https://sketchfab.com/3d-models/hannya-full-size-faa3c3b5657a48fa981fbfac4bf35469",
      "title": "Hannya Full Size"
    },
    "generator": "Sketchfab-12.67.0",
    "version": "2.0"
  },
  "bufferViews": [
    {
      "buffer": 0,
      "byteLength": 1580388,
      "name": "floatBufferViews",
      "target": 34963
    },
    {
      "buffer": 0,
      "byteLength": 1835784,
      "byteOffset": 1580388,
      "byteStride": 12,
      "name": "floatBufferViews",
      "target": 34962
    }
  ],
  "buffers": [
    {
      "byteLength": 3416172,
      "uri": "scene.bin"
    }
  ],
  "materials": [
    {
      "doubleSided": true,
      "name": "Scene_-_Root",
      "pbrMetallicRoughness": {
        "baseColorFactor": [
          0.0,
          0.0,
          0.0,
          1.0
        ],
        "metallicFactor": 0.0,
        "roughnessFactor": 0.05
      }
    }
  ],
  "meshes": [
    {
      "name": "Object_0",
      "primitives": [
        {
          "attributes": {
            "NORMAL": 1,
            "POSITION": 0
          },
          "indices": 2,
          "material": 0,
          "mode": 4
        }
      ]
    },
    {
      "name": "Object_1",
      "primitives": [
        {
          "attributes": {
            "NORMAL": 4,
            "POSITION": 3
          },
          "indices": 5,
          "material": 0,
          "mode": 4
        }
      ]
    }
  ],
  "nodes": [
    {
      "children": [
        1
      ],
      "matrix": [
        1.0,
        0.0,
        0.0,
        0.0,
        0.0,
        0.035772167146206124,
        -0.9993599653244019,
        0.0,
        0.0,
        0.9993599653244019,
        0.035772167146206124,
        0.0,
        0.0,
        -1.6825989484786987,
        -0.3209472298622135,
        1.0
      ],
      "name": "Sketchfab_model"
    },
    {
      "children": [
        2,
        3
      ],
      "name": "hannya full size.stl.cleaner.materialmerger.gles"
    },
    {
      "mesh": 0,
      "name": "Object_2"
    },
    {
      "mesh": 1,
      "name": "Object_3"
    }
  ],
  "scene": 0,
  "scenes": [
    {
      "name": "Sketchfab_Scene",
      "nodes": [
        0
      ]
    }
  ]
}
